<svg width="18" height="19" viewBox="0 0 18 19" fill="none" xmlns="http://www.w3.org/2000/svg">
<mask id="mask0_8865_1211" style="mask-type:luminance" maskUnits="userSpaceOnUse" x="0" y="0" width="18" height="19">
<path d="M18 0.590088H0V18.5901H18V0.590088Z" fill="white"/>
</mask>
<g mask="url(#mask0_8865_1211)">
<path d="M9.00074 0.590088C4.00335 0.590088 -0.046875 4.619 -0.046875 9.59009C-0.046875 14.5612 4.00335 18.5901 9.00074 18.5901C13.9981 18.5901 18.0484 14.5612 18.0484 9.59009C18.0484 4.619 13.9981 0.590088 9.00074 0.590088ZM9.00074 17.4651C4.63597 17.4651 1.08408 13.9319 1.08408 9.59009C1.08408 5.24829 4.63597 1.71509 9.00074 1.71509C13.3655 1.71509 16.9174 5.24829 16.9174 9.59009C16.9174 13.9319 13.3655 17.4651 9.00074 17.4651ZM9.00074 7.05884C9.46903 7.05884 9.84896 6.68126 9.84896 6.21509C9.84896 5.74927 9.46903 5.37134 9.00074 5.37134C8.53246 5.37134 8.15253 5.74751 8.15253 6.21509C8.15253 6.68267 8.53069 7.05884 9.00074 7.05884ZM10.6972 12.9651H9.56622V9.02759C9.56622 8.71822 9.31176 8.46509 9.00074 8.46509H7.86979C7.55878 8.46509 7.30432 8.71822 7.30432 9.02759C7.30432 9.33696 7.55878 9.59009 7.86979 9.59009H8.43527V12.9651H7.30432C6.9933 12.9651 6.73884 13.2182 6.73884 13.5276C6.73884 13.837 6.9933 14.0901 7.30432 14.0901H10.6972C11.0095 14.0901 11.2626 13.8382 11.2626 13.5276C11.2626 13.2182 11.0082 12.9651 10.6972 12.9651Z" fill="#01579B"/>
</g>
</svg>
