<svg width="10" height="14" viewBox="0 0 10 14" fill="none" xmlns="http://www.w3.org/2000/svg">
<g clip-path="url(#clip0_8873_1736)">
<path d="M2.03015 2.46334C2.03015 2.46334 2.25352 2.23997 2.70025 1.79324C3.14699 1.3465 4.00855 1.12313 5.28494 1.12313C6.56133 1.12313 7.64626 1.56987 8.53973 2.46334C9.43321 3.35681 9.87994 4.44174 9.87994 5.71813C9.87994 5.97341 9.87196 6.19279 9.85601 6.37627C9.84005 6.55975 9.78421 6.77913 9.68848 7.03441C9.59275 7.28969 9.505 7.50508 9.42523 7.68058C9.34545 7.85608 9.1859 8.14327 8.94658 8.54214C8.70726 8.94101 8.49586 9.28404 8.31238 9.57123C8.1289 9.85842 7.82575 10.3371 7.40295 11.0072C6.98015 11.6773 6.60122 12.2836 6.26617 12.826C6.0428 13.193 5.71572 13.3765 5.28494 13.3765C4.85416 13.3765 4.52709 13.193 4.30372 12.826C3.96867 12.2836 3.58974 11.6773 3.16693 11.0072C2.74413 10.3371 2.44099 9.85842 2.25751 9.57123C2.07403 9.28404 1.86262 8.94101 1.6233 8.54214C1.38398 8.14327 1.22443 7.85608 1.14465 7.68058C1.06488 7.50508 0.977129 7.28969 0.8814 7.03441C0.785671 6.77913 0.729829 6.55975 0.713874 6.37627C0.697919 6.19279 0.689941 5.97341 0.689941 5.71813C0.689941 4.44174 1.13668 3.35681 2.03015 2.46334ZM5.28494 12.2277C5.60404 11.7172 5.94707 11.1747 6.31403 10.6003C6.68099 10.0259 6.95621 9.59117 7.13969 9.29601C7.32317 9.00084 7.51862 8.68574 7.72604 8.35068C7.93345 8.01563 8.08103 7.76434 8.16878 7.59682C8.25653 7.42929 8.34827 7.2498 8.444 7.05834C8.53973 6.86688 8.60355 6.70733 8.63546 6.57969C8.66737 6.45206 8.6913 6.32043 8.70726 6.18481C8.72321 6.0492 8.73119 5.89364 8.73119 5.71813C8.73119 4.76084 8.39614 3.94714 7.72604 3.27704C7.05593 2.60693 6.24223 2.27188 5.28494 2.27188C4.32765 2.27188 3.51395 2.60693 2.84385 3.27704C2.17374 3.94714 1.83869 4.76084 1.83869 5.71813C1.83869 5.89364 1.84667 6.0492 1.86262 6.18481C1.87858 6.32043 1.90251 6.45604 1.93442 6.59166C1.96633 6.72728 2.03015 6.89081 2.12588 7.08227C2.22161 7.27373 2.31734 7.45322 2.41307 7.62075C2.5088 7.78827 2.66037 8.03956 2.86778 8.37462C3.07519 8.70967 3.27064 9.02478 3.45412 9.31994C3.6376 9.61511 3.90883 10.0459 4.26782 10.6123C4.6268 11.1787 4.96584 11.7172 5.28494 12.2277ZM3.93277 7.07031C3.93277 7.07031 3.83903 6.97657 3.65156 6.7891C3.46409 6.60163 3.37036 6.24464 3.37036 5.71813C3.37036 5.19162 3.55783 4.7409 3.93277 4.36596C4.30771 3.99102 4.75843 3.80355 5.28494 3.80355C5.81145 3.80355 6.26218 3.99102 6.63712 4.36596C7.01206 4.7409 7.19952 5.19162 7.19952 5.71813C7.19952 6.24464 7.01206 6.69537 6.63712 7.07031C6.26218 7.44525 5.81145 7.63271 5.28494 7.63271C4.75843 7.63271 4.30771 7.44525 3.93277 7.07031Z" fill="#A1A1AA"/>
</g>
<defs>
<clipPath id="clip0_8873_1736">
<rect width="9.19" height="13" fill="white" transform="matrix(1 0 0 -1 0.689941 13.75)"/>
</clipPath>
</defs>
</svg>
