<svg width="15" height="17" viewBox="0 0 15 17" fill="none" xmlns="http://www.w3.org/2000/svg">
<g clip-path="url(#clip0_8865_1035)">
<path d="M13.2173 3.75C13.5819 3.75 13.8918 3.8776 14.147 4.13281C14.4022 4.38802 14.5298 4.69792 14.5298 5.0625V12.9375C14.5298 13.3021 14.4022 13.612 14.147 13.8672C13.8918 14.1224 13.5819 14.25 13.2173 14.25H1.84229C1.4777 14.25 1.16781 14.1224 0.912598 13.8672C0.657389 13.612 0.529785 13.3021 0.529785 12.9375V5.0625C0.529785 4.69792 0.657389 4.38802 0.912598 4.13281C1.16781 3.8776 1.4777 3.75 1.84229 3.75H13.2173ZM13.2173 5.0625H1.84229V6.18359C2.48031 6.69401 3.71077 7.66016 5.53369 9.08203C5.53369 9.10026 5.6613 9.21419 5.9165 9.42383C6.17171 9.63346 6.36312 9.7793 6.49072 9.86133C6.61833 9.94336 6.78695 10.0391 6.99658 10.1484C7.20622 10.2578 7.38395 10.3125 7.52979 10.3125C7.67562 10.3125 7.85335 10.2578 8.06299 10.1484C8.27262 10.0391 8.44124 9.94336 8.56885 9.86133C8.69645 9.7793 8.88786 9.63346 9.14307 9.42383C9.39827 9.21419 9.52588 9.10026 9.52588 9.08203C11.3488 7.66016 12.5793 6.69401 13.2173 6.18359V5.0625ZM1.84229 12.9375H13.2173V7.85156C12.5793 8.36198 11.6222 9.11849 10.3462 10.1211C10.3097 10.1393 10.1776 10.2487 9.94971 10.4492C9.72184 10.6497 9.54411 10.7956 9.4165 10.8867C9.2889 10.9779 9.10661 11.0918 8.86963 11.2285C8.63265 11.3652 8.40479 11.4655 8.18604 11.5293C7.96729 11.5931 7.74854 11.625 7.52979 11.625C7.31104 11.625 7.08773 11.5931 6.85986 11.5293C6.632 11.4655 6.40413 11.3607 6.17627 11.2148C5.9484 11.069 5.77067 10.9505 5.64307 10.8594C5.51546 10.7682 5.33773 10.627 5.10986 10.4355C4.882 10.2441 4.74984 10.1393 4.71338 10.1211C3.43734 9.11849 2.48031 8.36198 1.84229 7.85156V12.9375Z" fill="white"/>
</g>
<defs>
<clipPath id="clip0_8865_1035">
<rect width="14" height="14" fill="white" transform="matrix(1 0 0 -1 0.529785 16)"/>
</clipPath>
</defs>
</svg>
