<svg width="24" height="25" viewBox="0 0 24 25" fill="none" xmlns="http://www.w3.org/2000/svg">
<path d="M12 2.95453C14.717 2.95453 15.056 2.96453 16.122 3.01453C17.187 3.06453 17.912 3.23153 18.55 3.47953C19.21 3.73353 19.766 4.07753 20.322 4.63253C20.8305 5.13242 21.224 5.73712 21.475 6.40453C21.722 7.04153 21.89 7.76753 21.94 8.83253C21.987 9.89853 22 10.2375 22 12.9545C22 15.6715 21.99 16.0105 21.94 17.0765C21.89 18.1415 21.722 18.8665 21.475 19.5045C21.2247 20.1723 20.8311 20.7771 20.322 21.2765C19.822 21.7848 19.2173 22.1783 18.55 22.4295C17.913 22.6765 17.187 22.8445 16.122 22.8945C15.056 22.9415 14.717 22.9545 12 22.9545C9.283 22.9545 8.944 22.9445 7.878 22.8945C6.813 22.8445 6.088 22.6765 5.45 22.4295C4.78233 22.179 4.17753 21.7855 3.678 21.2765C3.16941 20.7767 2.77593 20.172 2.525 19.5045C2.277 18.8675 2.11 18.1415 2.06 17.0765C2.013 16.0105 2 15.6715 2 12.9545C2 10.2375 2.01 9.89853 2.06 8.83253C2.11 7.76653 2.277 7.04253 2.525 6.40453C2.77524 5.73671 3.1688 5.13185 3.678 4.63253C4.17767 4.12376 4.78243 3.73026 5.45 3.47953C6.088 3.23153 6.812 3.06453 7.878 3.01453C8.944 2.96753 9.283 2.95453 12 2.95453ZM12 7.95453C10.6739 7.95453 9.40215 8.48131 8.46447 9.41899C7.52678 10.3567 7 11.6284 7 12.9545C7 14.2806 7.52678 15.5524 8.46447 16.4901C9.40215 17.4277 10.6739 17.9545 12 17.9545C13.3261 17.9545 14.5979 17.4277 15.5355 16.4901C16.4732 15.5524 17 14.2806 17 12.9545C17 11.6284 16.4732 10.3567 15.5355 9.41899C14.5979 8.48131 13.3261 7.95453 12 7.95453ZM18.5 7.70453C18.5 7.37301 18.3683 7.05507 18.1339 6.82065C17.8995 6.58622 17.5815 6.45453 17.25 6.45453C16.9185 6.45453 16.6005 6.58622 16.3661 6.82065C16.1317 7.05507 16 7.37301 16 7.70453C16 8.03605 16.1317 8.35399 16.3661 8.58841C16.6005 8.82283 16.9185 8.95453 17.25 8.95453C17.5815 8.95453 17.8995 8.82283 18.1339 8.58841C18.3683 8.35399 18.5 8.03605 18.5 7.70453ZM12 9.95453C12.7956 9.95453 13.5587 10.2706 14.1213 10.8332C14.6839 11.3958 15 12.1589 15 12.9545C15 13.7502 14.6839 14.5132 14.1213 15.0758C13.5587 15.6385 12.7956 15.9545 12 15.9545C11.2044 15.9545 10.4413 15.6385 9.87868 15.0758C9.31607 14.5132 9 13.7502 9 12.9545C9 12.1589 9.31607 11.3958 9.87868 10.8332C10.4413 10.2706 11.2044 9.95453 12 9.95453Z" fill="white"/>
</svg>
