<svg width="24" height="24" viewBox="0 0 24 24" fill="none" xmlns="http://www.w3.org/2000/svg">
  <path d="M12 8.5C10.067 8.5 8.5 10.067 8.5 12C8.5 13.933 10.067 15.5 12 15.5C13.933 15.5 15.5 13.933 15.5 12C15.5 10.067 13.933 8.5 12 8.5Z" stroke="#007ACC" stroke-width="1.6" fill="#F2F9FF"/>
  <path d="M12 4L12.6 6.2L14.2 7L16 6L17.4 8L16 9.2L16.4 11.5L18.5 12L18 14L16 14.5L14.9 16.6L16 18L14 19.4L12.8 18L10.7 18.4L10 20.5L8 20L7.5 18L5.6 17L4 18L2.6 16L4 14.7L3.6 12.5L1.5 12L2 10L4 9.5L5.1 7.4L4 6L6 4.6L7.2 6L9.3 5.6L10 3.5L12 4Z" stroke="#007ACC" stroke-width="1.2" stroke-linejoin="round" fill="none"/>
  <path d="M12 5.2C12.9943 5.2 13.8 4.39427 13.8 3.4C13.8 1.52231 10.2 1.52231 10.2 3.4C10.2 4.39427 11.0057 5.2 12 5.2Z" stroke="#00D4FF" stroke-width="1.2" fill="#E6FBFF"/>
</svg>
