<svg width="24" height="25" viewBox="0 0 24 25" fill="none" xmlns="http://www.w3.org/2000/svg">
<path d="M22.1621 6.61027C21.3986 6.94797 20.589 7.16975 19.7601 7.26827C20.6338 6.74571 21.2878 5.92329 21.6001 4.95427C20.7801 5.44227 19.8811 5.78427 18.9441 5.96927C18.3147 5.29585 17.4804 4.84924 16.571 4.69886C15.6616 4.54848 14.728 4.70276 13.9153 5.13773C13.1026 5.57269 12.4564 6.26396 12.0772 7.10406C11.6979 7.94417 11.6068 8.88605 11.8181 9.78327C10.1552 9.69993 8.52838 9.2678 7.04334 8.51494C5.55829 7.76208 4.24818 6.70532 3.19805 5.41327C2.82634 6.05172 2.63101 6.7775 2.63205 7.51627C2.63205 8.96627 3.37005 10.2473 4.49205 10.9973C3.82806 10.9764 3.17869 10.7971 2.59805 10.4743V10.5263C2.59825 11.492 2.93242 12.4279 3.5439 13.1753C4.15538 13.9228 5.00653 14.4357 5.95305 14.6273C5.33667 14.7943 4.69036 14.8189 4.06305 14.6993C4.32992 15.5305 4.85006 16.2575 5.55064 16.7784C6.25123 17.2993 7.09718 17.5881 7.97005 17.6043C7.10253 18.2856 6.10923 18.7893 5.04693 19.0864C3.98464 19.3836 2.87418 19.4685 1.77905 19.3363C3.69075 20.5657 5.91615 21.2184 8.18905 21.2163C15.8821 21.2163 20.0891 14.8433 20.0891 9.31627C20.0891 9.13627 20.0841 8.95427 20.0761 8.77627C20.8949 8.18444 21.6017 7.45129 22.1631 6.61127L22.1621 6.61027Z" fill="white"/>
</svg>
