<svg width="12" height="12" viewBox="0 0 12 12" fill="none" xmlns="http://www.w3.org/2000/svg">
<path d="M5.88649 0.414062C6.03895 0.278646 6.18294 0.278646 6.31846 0.414062L11.6799 5.79688C11.8324 5.93229 11.8324 6.06771 11.6799 6.20312L6.31846 11.5859C6.18294 11.7214 6.03895 11.7214 5.88649 11.5859L5.70862 11.3828C5.5731 11.2474 5.5731 11.1035 5.70862 10.9512L10.257 6.43164H0.702868C0.499589 6.43164 0.397949 6.33008 0.397949 6.12695V5.87305C0.397949 5.66992 0.499589 5.56836 0.702868 5.56836H10.257L5.70862 1.04883C5.5731 0.896484 5.5731 0.752604 5.70862 0.617188L5.88649 0.414062Z" fill="black" fill-opacity="0.6"/>
</svg>
