<svg width="17" height="15" viewBox="0 0 17 15" fill="none" xmlns="http://www.w3.org/2000/svg">
<path d="M11.3022 9.93359L12.1772 9.05859C12.2502 8.98568 12.3322 8.96745 12.4233 9.00391C12.5145 9.04036 12.5601 9.11328 12.5601 9.22266V13.1875C12.5601 13.5521 12.4325 13.862 12.1772 14.1172C11.922 14.3724 11.6121 14.5 11.2476 14.5H1.62256C1.25798 14.5 0.948079 14.3724 0.692871 14.1172C0.437663 13.862 0.310059 13.5521 0.310059 13.1875V3.5625C0.310059 3.19792 0.437663 2.88802 0.692871 2.63281C0.948079 2.3776 1.25798 2.25 1.62256 2.25H9.11475C9.20589 2.25 9.26969 2.29557 9.30615 2.38672C9.34261 2.47786 9.32438 2.5599 9.25146 2.63281L8.37646 3.50781C8.34001 3.54427 8.29443 3.5625 8.23975 3.5625H1.62256V13.1875H11.2476V10.0703C11.2476 10.0156 11.2658 9.97005 11.3022 9.93359ZM15.5952 4.41016L8.40381 11.6016L5.94287 11.875C5.57829 11.9115 5.26839 11.8021 5.01318 11.5469C4.75798 11.2917 4.6486 10.9818 4.68506 10.6172L4.9585 8.15625L12.1499 0.964844C12.4598 0.654948 12.8335 0.5 13.271 0.5C13.7085 0.5 14.0913 0.654948 14.4194 0.964844L15.5952 2.14062C15.9051 2.45052 16.0601 2.82878 16.0601 3.27539C16.0601 3.72201 15.9051 4.10026 15.5952 4.41016ZM12.8882 5.25781L11.3022 3.67188L6.21631 8.75781L6.0249 10.5352L7.80225 10.3438L12.8882 5.25781ZM14.6655 3.07031L13.4897 1.89453C13.3439 1.76693 13.2072 1.76693 13.0796 1.89453L12.2319 2.74219L13.8179 4.32812L14.6655 3.48047C14.7931 3.35286 14.7931 3.21615 14.6655 3.07031Z" fill="white"/>
</svg>
