<svg width="24" height="24" viewBox="0 0 24 24" fill="none" xmlns="http://www.w3.org/2000/svg">
  <path d="M4.5 13.4L13.6 9V17.8L9.8 16.1L8.3 19.6C8 20.3 7 20.3 6.7 19.6L4.5 13.4Z" fill="#FFE4F1" stroke="#FF1493" stroke-width="1.6" stroke-linejoin="round"/>
  <path d="M13.6 10.4L17.4 8.5" stroke="#FF69B4" stroke-width="1.6" stroke-linecap="round"/>
  <path d="M13.6 16.3L17.4 18.2" stroke="#FF69B4" stroke-width="1.6" stroke-linecap="round"/>
  <path d="M9.5 16.1L7.8 11.7" stroke="#FF1493" stroke-width="1.4" stroke-linecap="round"/>
  <path d="M18.4 7C18 6 16.8 5.7 15.9 6.4" stroke="#FF69B4" stroke-width="1.2" stroke-linecap="round"/>
  <path d="M19 11.3C18.5 10.3 17.2 10.1 16.4 10.8" stroke="#FF69B4" stroke-width="1.2" stroke-linecap="round"/>
  <path d="M18.6 15.3C17.9 14.7 17 14.9 16.5 15.6" stroke="#FF69B4" stroke-width="1.2" stroke-linecap="round"/>
  <circle cx="18.9" cy="12.9" r="0.9" fill="#FF1493"/>
  <circle cx="17.5" cy="9.2" r="0.7" fill="#FF69B4"/>
  <circle cx="18.8" cy="17.2" r="0.8" fill="#FF1493"/>
</svg>
