<svg width="24" height="24" viewBox="0 0 24 24" fill="none" xmlns="http://www.w3.org/2000/svg">
  <rect x="3.5" y="5" width="17" height="15" rx="3" stroke="#FF1493" stroke-width="1.6" fill="#FFE4F1"/>
  <path d="M8 3.5V7" stroke="#FF1493" stroke-width="1.6" stroke-linecap="round"/>
  <path d="M16.5 3.5V7" stroke="#FF1493" stroke-width="1.6" stroke-linecap="round"/>
  <path d="M3.5 10H20.5" stroke="#FF1493" stroke-width="1.6" stroke-linecap="round"/>
  <path d="M9.8 13.5C9 12.4 7.3 12.4 6.6 13.7C6 14.8 6.6 16.2 8.9 17.7C10 18.5 11 18.9 11.7 19C12.4 18.9 13.4 18.5 14.5 17.7C16.8 16.2 17.4 14.8 16.8 13.7C16.1 12.4 14.4 12.4 13.6 13.5L11.7 15.7L9.8 13.5Z" fill="#FF69B4"/>
  <path d="M12.6 12L13.8 10.6C14.1 10.2 14.7 10.2 15 10.6L16 11.7" stroke="#FF1493" stroke-width="1.3" stroke-linecap="round"/>
  <path d="M10.8 12L9.59998 10.6C9.29998 10.2 8.69998 10.2 8.39998 10.6L7.39998 11.7" stroke="#FF1493" stroke-width="1.3" stroke-linecap="round"/>
  <path d="M11.7 18.9V20.4" stroke="#FF1493" stroke-width="1.2" stroke-linecap="round"/>
</svg>
