<svg width="21" height="16" viewBox="0 0 21 16" fill="none" xmlns="http://www.w3.org/2000/svg">
<path d="M18.375 0.339844H2.125C1.08945 0.339844 0.25 1.17929 0.25 2.21484V13.4648C0.25 14.5003 1.08945 15.3398 2.125 15.3398H18.375C19.4105 15.3398 20.25 14.5003 20.25 13.4648V2.21484C20.25 1.17929 19.4105 0.339844 18.375 0.339844ZM18.375 2.21484V3.80879C17.4991 4.52203 16.1028 5.63109 13.1177 7.96855C12.4598 8.48601 11.1567 9.72918 10.25 9.71468C9.34344 9.72933 8.03988 8.48582 7.38231 7.96855C4.39766 5.63144 3.00098 4.52214 2.125 3.80879V2.21484H18.375ZM2.125 13.4648V6.21476C3.02008 6.92769 4.28941 7.92812 6.22414 9.44312C7.07793 10.1152 8.57312 11.5988 10.25 11.5898C11.9186 11.5988 13.3949 10.1367 14.2755 9.44343C16.2102 7.92847 17.4799 6.92777 18.375 6.2148V13.4648H2.125Z" fill="white"/>
</svg>
