<svg width="10" height="12" viewBox="0 0 10 12" fill="none" xmlns="http://www.w3.org/2000/svg">
<path d="M8.82844 5.67563L5.28646 9.21761C5.15882 9.3612 5.03118 9.3612 4.90354 9.21761L1.36156 5.67563C1.21797 5.54799 1.21797 5.41238 1.36156 5.26878L1.81628 4.81407C1.95987 4.67048 2.09549 4.67048 2.22312 4.81407L4.47276 7.1355V1.17636C4.47276 1.09659 4.50068 1.02878 4.55652 0.972936C4.61237 0.917094 4.68017 0.889173 4.75995 0.889173H5.43005C5.50983 0.889173 5.57763 0.917094 5.63348 0.972936C5.68932 1.02878 5.71724 1.09659 5.71724 1.17636V7.1355L7.96687 4.81407C8.09451 4.67048 8.23013 4.67048 8.37372 4.81407L8.82844 5.26878C8.97203 5.41238 8.97203 5.54799 8.82844 5.67563ZM9.40281 10.3664C9.59427 10.3664 9.69 10.4621 9.69 10.6535V11.3237C9.69 11.5151 9.59427 11.6108 9.40281 11.6108H0.787187C0.595729 11.6108 0.5 11.5151 0.5 11.3237V10.6535C0.5 10.4621 0.595729 10.3664 0.787187 10.3664H9.40281Z" fill="#34D399"/>
</svg>
