<svg width="24" height="25" viewBox="0 0 24 25" fill="none" xmlns="http://www.w3.org/2000/svg">
<path d="M21.543 7.45235C22 9.23435 22 12.9543 22 12.9543C22 12.9543 22 16.6743 21.543 18.4563C21.289 19.4413 20.546 20.2163 19.605 20.4783C17.896 20.9543 12 20.9543 12 20.9543C12 20.9543 6.107 20.9543 4.395 20.4783C3.45 20.2123 2.708 19.4383 2.457 18.4563C2 16.6743 2 12.9543 2 12.9543C2 12.9543 2 9.23435 2.457 7.45235C2.711 6.46735 3.454 5.69235 4.395 5.43035C6.107 4.95435 12 4.95435 12 4.95435C12 4.95435 17.896 4.95435 19.605 5.43035C20.55 5.69635 21.292 6.47035 21.543 7.45235ZM10 16.4543L16 12.9543L10 9.45435V16.4543Z" fill="white"/>
</svg>
