<svg width="24" height="24" viewBox="0 0 24 24" fill="none" xmlns="http://www.w3.org/2000/svg">
  <path d="M7.2 11C6.2279 11 5.5 10.1763 5.5 9.22077C5.5 8.83715 5.6251 8.46437 5.85504 8.15866L8.13505 5.13545C9.28788 3.6136 11.6561 3.6136 12.8089 5.13545L15.0889 8.15866C15.3189 8.46437 15.444 8.83715 15.444 9.22077C15.444 10.1763 14.7161 11 13.744 11H7.2Z" fill="#FFE4F1" stroke="#FF1493" stroke-width="1.4"/>
  <path d="M11.9999 12.2C9.89992 12.2 8.19992 10.5 8.19992 8.4C8.19992 6.3 9.89992 4.6 11.9999 4.6C14.0999 4.6 15.7999 6.3 15.7999 8.4C15.7999 10.5 14.0999 12.2 11.9999 12.2Z" fill="#FFFFFF" stroke="#FF1493" stroke-width="1.4"/>
  <path d="M10.0999 9.0999C10.6999 8.2999 11.8999 8.2999 12.4999 9.0999C12.8999 9.5999 13.6999 9.6999 14.1999 9.1999C14.6999 8.6999 14.5999 7.8999 13.9999 7.4999" stroke="#FF69B4" stroke-width="1.2" stroke-linecap="round"/>
  <path d="M9 14.5H15.5L17 18.8C17.2869 19.5971 16.6971 20.4 15.8522 20.4H8.64781C7.8029 20.4 7.2131 19.5971 7.5 18.8L9 14.5Z" fill="#FFE4F1" stroke="#FF1493" stroke-width="1.4" stroke-linejoin="round"/>
  <path d="M7.5 16.9C7.5 16.4582 7.85817 16.1 8.3 16.1H16.2C16.6418 16.1 17 16.4582 17 16.9C17 17.3418 16.6418 17.7 16.2 17.7H8.3C7.85817 17.7 7.5 17.3418 7.5 16.9Z" fill="#FF69B4" fill-opacity="0.8"/>
  <path d="M11.2 6.1C11.5 5.6 12.3 5.6 12.6 6.1L13.3 7.3C13.6 7.8 13.3 8.4 12.7 8.4H11.1C10.5 8.4 10.2 7.8 10.5 7.3L11.2 6.1Z" fill="#FF69B4"/>
</svg>
