<?xml version="1.0" encoding="utf-8"?>
<!-- Uploaded to: SVG Repo, www.svgrepo.com, Generator: SVG Repo Mixer Tools -->
<svg width="800px" height="800px" viewBox="0 0 1024 1024" class="icon"  version="1.1" xmlns="http://www.w3.org/2000/svg"><path d="M277.333333 704a21.333333 21.333333 0 0 0-21.333333-21.333333H170.666667a21.333333 21.333333 0 0 0-21.333334 21.333333v128a21.333333 21.333333 0 0 0 21.333334 21.333333h85.333333a21.333333 21.333333 0 0 0 21.333333-21.333333v-128zM874.666667 704a21.333333 21.333333 0 0 0-21.333334-21.333333h-85.333333a21.333333 21.333333 0 0 0-21.333333 21.333333v128a21.333333 21.333333 0 0 0 21.333333 21.333333h85.333333a21.333333 21.333333 0 0 0 21.333334-21.333333v-128z" fill="#455A64" /><path d="M917.333333 448H106.666667a21.333333 21.333333 0 0 0-21.333334 21.333333v42.666667a21.333333 21.333333 0 0 0 21.333334 21.333333h810.666666a21.333333 21.333333 0 0 0 21.333334-21.333333v-42.666667a21.333333 21.333333 0 0 0-21.333334-21.333333z" fill="#AB47BC" /><path d="M832 448c0 64.789333 43.456 128-21.333333 128H213.333333c-64.810667 0-21.333333-63.210667-21.333333-128l21.333333-181.333333c10.005333-63.338667 52.522667-117.333333 117.333334-117.333334h362.666666c64.789333 0 108.672 53.994667 117.333334 117.333334l21.333333 181.333333z" fill="#AB47BC" /><path d="M832 512l-21.333333-42.666667H213.333333l-21.333333 42.666667c-23.552 0-42.666667 40.448-42.666667 64v170.666667a21.333333 21.333333 0 0 0 21.333334 21.333333h682.666666a21.333333 21.333333 0 0 0 21.333334-21.333333v-170.666667c0-23.552-19.114667-64-42.666667-64z" fill="#AB47BC" /><path d="M790.506667 469.333333a213.333333 213.333333 0 0 1-1.152-18.666666l-21.056-179.008C762.922667 232.405333 737.578667 192 693.333333 192h-362.666666c-45.717333 0-68.949333 43.2-75.072 80.554667l-20.949334 178.112a205.333333 205.333333 0 0 1-1.152 18.666666h557.013334z" fill="#E3F2FD" /><path d="M832 682.666667a21.333333 21.333333 0 0 1-21.333333 21.333333H213.333333a21.333333 21.333333 0 0 1-21.333333-21.333333v-64a21.333333 21.333333 0 0 1 21.333333-21.333334h597.333334a21.333333 21.333333 0 0 1 21.333333 21.333334v64z" fill="#212121" /><path d="M245.333333 650.666667m-32 0a32 32 0 1 0 64 0 32 32 0 1 0-64 0Z" fill="#FFEB3B" /><path d="M778.666667 650.666667m-32 0a32 32 0 1 0 64 0 32 32 0 1 0-64 0Z" fill="#FFEB3B" /><path d="M341.333333 448c-35.285333 0-64-28.672-64-64 0-35.306667 28.714667-64 64-64s64 28.693333 64 64c0 35.328-28.714667 64-64 64M682.666667 448c-35.285333 0-64-28.672-64-64 0-35.306667 28.714667-64 64-64s64 28.693333 64 64c0 35.328-28.714667 64-64 64M512 448c-35.285333 0-64-28.672-64-64 0-35.306667 28.714667-64 64-64s64 28.693333 64 64c0 35.328-28.714667 64-64 64" fill="#FFB74D" /><path d="M426.666667 298.666667c-23.530667 0-42.666667-19.114667-42.666667-42.666667s19.136-42.666667 42.666667-42.666667 42.666667 19.114667 42.666666 42.666667-19.136 42.666667-42.666666 42.666667M597.333333 298.666667c-23.530667 0-42.666667-19.114667-42.666666-42.666667s19.136-42.666667 42.666666-42.666667 42.666667 19.114667 42.666667 42.666667-19.136 42.666667-42.666667 42.666667" fill="#FFA726" /></svg>