<svg width="24" height="24" viewBox="0 0 24 24" fill="none" xmlns="http://www.w3.org/2000/svg">
  <path d="M9.2 4.5L10 10C10.2 11.3 9.1 12.4 7.8 12.2C6.8 12.1 6 11.3 5.9 10.3L5.3 5.7C5.2 4.9 5.8 4.3 6.6 4.3H8.5C8.9 4.3 9.1 4.3 9.2 4.5Z" fill="#FFE4F1" stroke="#FF1493" stroke-width="1.4"/>
  <path d="M14.8 4.5L14 10C13.8 11.3 14.9 12.4 16.2 12.2C17.2 12.1 18 11.3 18.1 10.3L18.7 5.7C18.8 4.9 18.2 4.3 17.4 4.3H15.5C15.1 4.3 14.9 4.3 14.8 4.5Z" fill="#FFE4F1" stroke="#FF1493" stroke-width="1.4"/>
  <path d="M6.9 12.8L8.8 18" stroke="#FF1493" stroke-width="1.4" stroke-linecap="round"/>
  <path d="M17.1 12.8L15.2 18" stroke="#FF1493" stroke-width="1.4" stroke-linecap="round"/>
  <path d="M8.9 18L7.4 20.4" stroke="#FF69B4" stroke-width="1.4" stroke-linecap="round"/>
  <path d="M15.1 18L16.6 20.4" stroke="#FF69B4" stroke-width="1.4" stroke-linecap="round"/>
  <path d="M8 7.2H9.6" stroke="#FF69B4" stroke-width="1.2" stroke-linecap="round"/>
  <path d="M14.4 7.2H16" stroke="#FF69B4" stroke-width="1.2" stroke-linecap="round"/>
  <path d="M9.4 12.6L11.9 14.8C12.3 15.1 12.9 15.1 13.3 14.8L15.8 12.6" stroke="#FF1493" stroke-width="1.4" stroke-linecap="round"/>
  <path d="M11.8 14.7C11.2 15.5 10.1 15.7 9.19999 15.2L8.09999 14.6" stroke="#FF69B4" stroke-width="1.2" stroke-linecap="round"/>
  <path d="M13.4 14.7C14 15.5 15.1 15.7 16 15.2L17.1 14.6" stroke="#FF69B4" stroke-width="1.2" stroke-linecap="round"/>
</svg>
