<svg width="24" height="24" viewBox="0 0 24 24" fill="none" xmlns="http://www.w3.org/2000/svg">
  <path d="M7.5 4.5H11L11.4 9C11.5 10.3807 10.3807 11.5 9 11.5C7.61929 11.5 6.5 10.3807 6.6 9L7 4.5Z" stroke="#8B4513" stroke-width="1.6" fill="#F8F1E4"/>
  <path d="M16.5 4.5H13L12.6 9C12.5 10.3807 13.6193 11.5 15 11.5C16.3807 11.5 17.5 10.3807 17.4 9L17 4.5Z" stroke="#8B4513" stroke-width="1.6" fill="#F8F1E4"/>
  <path d="M9 12V18" stroke="#8B4513" stroke-width="1.4" stroke-linecap="round"/>
  <path d="M15 12V18" stroke="#8B4513" stroke-width="1.4" stroke-linecap="round"/>
  <path d="M7.2 18H10.8" stroke="#DAA520" stroke-width="1.6" stroke-linecap="round"/>
  <path d="M13.2 18H16.8" stroke="#DAA520" stroke-width="1.6" stroke-linecap="round"/>
  <path d="M9 6.5C10 7 10.5 7.8 10.5 8.5" stroke="#DAA520" stroke-width="1.2" stroke-linecap="round"/>
  <path d="M15 6.5C14 7 13.5 7.8 13.5 8.5" stroke="#DAA520" stroke-width="1.2" stroke-linecap="round"/>
</svg>
